<mxfile host="Electron" agent="Mozilla/5.0 (Windows NT 10.0; Win64; x64) AppleWebKit/537.36 (KHTML, like Gecko) draw.io/28.1.2 Chrome/138.0.7204.243 Electron/37.4.0 Safari/537.36" version="28.1.2">
  <diagram name="Banking Management System - Use Case Diagram" id="iAcWzhAfXqmFQkhmTM1-">
    <mxGraphModel dx="2536" dy="2407" grid="1" gridSize="10" guides="1" tooltips="1" connect="1" arrows="1" fold="1" page="1" pageScale="1" pageWidth="827" pageHeight="1169" math="0" shadow="0">
      <root>
        <mxCell id="0" />
        <mxCell id="1" parent="0" />
        <mxCell id="iVBU6AAsfBM6RFVNMPsU-1" value="Banking Management System" style="rounded=0;whiteSpace=wrap;html=1;fillColor=none;strokeColor=#808080;verticalAlign=top;fontSize=18;fontStyle=1;align=center;" vertex="1" parent="1">
          <mxGeometry x="251" y="-370" width="1439" height="2100" as="geometry" />
        </mxCell>
        <mxCell id="iVBU6AAsfBM6RFVNMPsU-2" value="Client" style="shape=umlActor;verticalLabelPosition=bottom;verticalAlign=top;html=1;" vertex="1" parent="1">
          <mxGeometry x="100" y="400" width="60" height="120" as="geometry" />
        </mxCell>
        <mxCell id="iVBU6AAsfBM6RFVNMPsU-3" value="Administrator" style="shape=umlActor;verticalLabelPosition=bottom;verticalAlign=top;html=1;" vertex="1" parent="1">
          <mxGeometry x="1910" y="740" width="60" height="120" as="geometry" />
        </mxCell>
        <mxCell id="iVBU6AAsfBM6RFVNMPsU-4" value="User Login" style="ellipse;whiteSpace=wrap;html=1;" vertex="1" parent="1">
          <mxGeometry x="450" y="-130" width="140" height="70" as="geometry" />
        </mxCell>
        <mxCell id="iVBU6AAsfBM6RFVNMPsU-5" value="Deposit Funds" style="ellipse;whiteSpace=wrap;html=1;" vertex="1" parent="1">
          <mxGeometry x="610" y="330" width="140" height="70" as="geometry" />
        </mxCell>
        <mxCell id="iVBU6AAsfBM6RFVNMPsU-6" value="Withdraw Funds" style="ellipse;whiteSpace=wrap;html=1;" vertex="1" parent="1">
          <mxGeometry x="484" y="220" width="140" height="70" as="geometry" />
        </mxCell>
        <mxCell id="iVBU6AAsfBM6RFVNMPsU-7" value="View Available&lt;br&gt;Currencies" style="ellipse;whiteSpace=wrap;html=1;" vertex="1" parent="1">
          <mxGeometry x="870" y="410" width="140" height="70" as="geometry" />
        </mxCell>
        <mxCell id="iVBU6AAsfBM6RFVNMPsU-8" value="Find Currency&lt;br&gt;Rates" style="ellipse;whiteSpace=wrap;html=1;" vertex="1" parent="1">
          <mxGeometry x="710" y="680" width="140" height="70" as="geometry" />
        </mxCell>
        <mxCell id="iVBU6AAsfBM6RFVNMPsU-9" value="Calculate Currency&lt;br&gt;Conversion" style="ellipse;whiteSpace=wrap;html=1;" vertex="1" parent="1">
          <mxGeometry x="274" y="230" width="140" height="70" as="geometry" />
        </mxCell>
        <mxCell id="iVBU6AAsfBM6RFVNMPsU-10" value="Commit Currency&lt;br&gt;Exchange" style="ellipse;whiteSpace=wrap;html=1;" vertex="1" parent="1">
          <mxGeometry x="410" y="-310" width="140" height="70" as="geometry" />
        </mxCell>
        <mxCell id="iVBU6AAsfBM6RFVNMPsU-11" value="View Client&lt;br&gt;List" style="ellipse;whiteSpace=wrap;html=1;" vertex="1" parent="1">
          <mxGeometry x="1490" y="-110" width="140" height="70" as="geometry" />
        </mxCell>
        <mxCell id="iVBU6AAsfBM6RFVNMPsU-12" value="Search Client" style="ellipse;whiteSpace=wrap;html=1;" vertex="1" parent="1">
          <mxGeometry x="1310" y="20" width="140" height="70" as="geometry" />
        </mxCell>
        <mxCell id="iVBU6AAsfBM6RFVNMPsU-13" value="Add New Client" style="ellipse;whiteSpace=wrap;html=1;" vertex="1" parent="1">
          <mxGeometry x="1360" y="230" width="140" height="70" as="geometry" />
        </mxCell>
        <mxCell id="iVBU6AAsfBM6RFVNMPsU-14" value="Delete Client" style="ellipse;whiteSpace=wrap;html=1;" vertex="1" parent="1">
          <mxGeometry x="1190" y="400" width="140" height="70" as="geometry" />
        </mxCell>
        <mxCell id="iVBU6AAsfBM6RFVNMPsU-15" value="Transfer Money&lt;br&gt;Between Accounts" style="ellipse;whiteSpace=wrap;html=1;" vertex="1" parent="1">
          <mxGeometry x="860" y="590" width="140" height="70" as="geometry" />
        </mxCell>
        <mxCell id="iVBU6AAsfBM6RFVNMPsU-17" value="Validate User&lt;br&gt;Input" style="ellipse;whiteSpace=wrap;html=1;" vertex="1" parent="1">
          <mxGeometry x="750" y="260" width="140" height="70" as="geometry" />
        </mxCell>
        <mxCell id="iVBU6AAsfBM6RFVNMPsU-18" value="Log Transaction&lt;br&gt;History" style="ellipse;whiteSpace=wrap;html=1;" vertex="1" parent="1">
          <mxGeometry x="950" y="-90" width="140" height="70" as="geometry" />
        </mxCell>
        <mxCell id="iVBU6AAsfBM6RFVNMPsU-19" value="Track Login&lt;br&gt;Attempts" style="ellipse;whiteSpace=wrap;html=1;" vertex="1" parent="1">
          <mxGeometry x="400" y="150" width="140" height="70" as="geometry" />
        </mxCell>
        <mxCell id="iVBU6AAsfBM6RFVNMPsU-20" value="Update Exchange&lt;br&gt;Rates" style="ellipse;whiteSpace=wrap;html=1;" vertex="1" parent="1">
          <mxGeometry x="560" y="490" width="140" height="70" as="geometry" />
        </mxCell>
        <mxCell id="iVBU6AAsfBM6RFVNMPsU-21" value="Maintain Data&lt;br&gt;Integrity" style="ellipse;whiteSpace=wrap;html=1;" vertex="1" parent="1">
          <mxGeometry x="1230" y="-270" width="140" height="70" as="geometry" />
        </mxCell>
        <mxCell id="iVBU6AAsfBM6RFVNMPsU-22" value="" style="endArrow=none;html=1;rounded=0;exitX=1;exitY=0.3333333333333333;exitDx=0;exitDy=0;exitPerimeter=0;" edge="1" parent="1" source="iVBU6AAsfBM6RFVNMPsU-2" target="iVBU6AAsfBM6RFVNMPsU-4">
          <mxGeometry relative="1" as="geometry" />
        </mxCell>
        <mxCell id="iVBU6AAsfBM6RFVNMPsU-23" value="" style="endArrow=none;html=1;rounded=0;" edge="1" parent="1" target="iVBU6AAsfBM6RFVNMPsU-5">
          <mxGeometry relative="1" as="geometry">
            <mxPoint x="160" y="440" as="sourcePoint" />
          </mxGeometry>
        </mxCell>
        <mxCell id="iVBU6AAsfBM6RFVNMPsU-24" value="" style="endArrow=none;html=1;rounded=0;" edge="1" parent="1" target="iVBU6AAsfBM6RFVNMPsU-6">
          <mxGeometry relative="1" as="geometry">
            <mxPoint x="160" y="440" as="sourcePoint" />
          </mxGeometry>
        </mxCell>
        <mxCell id="iVBU6AAsfBM6RFVNMPsU-25" value="" style="endArrow=none;html=1;rounded=0;" edge="1" parent="1" target="iVBU6AAsfBM6RFVNMPsU-7">
          <mxGeometry relative="1" as="geometry">
            <mxPoint x="160" y="440" as="sourcePoint" />
          </mxGeometry>
        </mxCell>
        <mxCell id="iVBU6AAsfBM6RFVNMPsU-26" value="" style="endArrow=none;html=1;rounded=0;exitX=1;exitY=0.3333333333333333;exitDx=0;exitDy=0;exitPerimeter=0;" edge="1" parent="1" source="iVBU6AAsfBM6RFVNMPsU-2" target="iVBU6AAsfBM6RFVNMPsU-8">
          <mxGeometry relative="1" as="geometry" />
        </mxCell>
        <mxCell id="iVBU6AAsfBM6RFVNMPsU-27" value="" style="endArrow=none;html=1;rounded=0;exitX=1;exitY=0.3333333333333333;exitDx=0;exitDy=0;exitPerimeter=0;" edge="1" parent="1" source="iVBU6AAsfBM6RFVNMPsU-2" target="iVBU6AAsfBM6RFVNMPsU-9">
          <mxGeometry relative="1" as="geometry" />
        </mxCell>
        <mxCell id="iVBU6AAsfBM6RFVNMPsU-28" value="" style="endArrow=none;html=1;rounded=0;" edge="1" parent="1" target="iVBU6AAsfBM6RFVNMPsU-10">
          <mxGeometry relative="1" as="geometry">
            <mxPoint x="160" y="440" as="sourcePoint" />
          </mxGeometry>
        </mxCell>
        <mxCell id="iVBU6AAsfBM6RFVNMPsU-29" value="" style="endArrow=none;html=1;rounded=0;" edge="1" parent="1" target="iVBU6AAsfBM6RFVNMPsU-4">
          <mxGeometry relative="1" as="geometry">
            <mxPoint x="1910" y="760" as="sourcePoint" />
          </mxGeometry>
        </mxCell>
        <mxCell id="iVBU6AAsfBM6RFVNMPsU-30" value="" style="endArrow=none;html=1;rounded=0;" edge="1" parent="1" target="iVBU6AAsfBM6RFVNMPsU-11">
          <mxGeometry relative="1" as="geometry">
            <mxPoint x="1910" y="760" as="sourcePoint" />
          </mxGeometry>
        </mxCell>
        <mxCell id="iVBU6AAsfBM6RFVNMPsU-31" value="" style="endArrow=none;html=1;rounded=0;" edge="1" parent="1" source="iVBU6AAsfBM6RFVNMPsU-3" target="iVBU6AAsfBM6RFVNMPsU-12">
          <mxGeometry relative="1" as="geometry" />
        </mxCell>
        <mxCell id="iVBU6AAsfBM6RFVNMPsU-32" value="" style="endArrow=none;html=1;rounded=0;" edge="1" parent="1" target="iVBU6AAsfBM6RFVNMPsU-13">
          <mxGeometry relative="1" as="geometry">
            <mxPoint x="1910" y="760" as="sourcePoint" />
          </mxGeometry>
        </mxCell>
        <mxCell id="iVBU6AAsfBM6RFVNMPsU-33" value="" style="endArrow=none;html=1;rounded=0;" edge="1" parent="1" target="iVBU6AAsfBM6RFVNMPsU-14">
          <mxGeometry relative="1" as="geometry">
            <mxPoint x="1910" y="760" as="sourcePoint" />
          </mxGeometry>
        </mxCell>
        <mxCell id="iVBU6AAsfBM6RFVNMPsU-34" value="" style="endArrow=none;html=1;rounded=0;" edge="1" parent="1" target="iVBU6AAsfBM6RFVNMPsU-15">
          <mxGeometry relative="1" as="geometry">
            <mxPoint x="1910" y="760" as="sourcePoint" />
          </mxGeometry>
        </mxCell>
        <mxCell id="iVBU6AAsfBM6RFVNMPsU-35" value="" style="endArrow=none;html=1;rounded=0;" edge="1" parent="1" target="iVBU6AAsfBM6RFVNMPsU-16">
          <mxGeometry relative="1" as="geometry">
            <mxPoint x="1910" y="760" as="sourcePoint" />
          </mxGeometry>
        </mxCell>
        <mxCell id="iVBU6AAsfBM6RFVNMPsU-36" value="&amp;lt;&amp;lt;include&amp;gt;&amp;gt;" style="endArrow=open;endSize=12;dashed=1;html=1;rounded=0;" edge="1" parent="1" source="iVBU6AAsfBM6RFVNMPsU-5" target="iVBU6AAsfBM6RFVNMPsU-4">
          <mxGeometry x="-0.2" y="10" relative="1" as="geometry">
            <mxPoint as="offset" />
          </mxGeometry>
        </mxCell>
        <mxCell id="iVBU6AAsfBM6RFVNMPsU-37" value="" style="endArrow=open;endSize=12;dashed=1;html=1;rounded=0;" edge="1" parent="1" source="iVBU6AAsfBM6RFVNMPsU-10" target="iVBU6AAsfBM6RFVNMPsU-4">
          <mxGeometry x="-0.2" y="10" relative="1" as="geometry">
            <mxPoint as="offset" />
          </mxGeometry>
        </mxCell>
        <mxCell id="iVBU6AAsfBM6RFVNMPsU-46" value="&amp;lt;&amp;lt;includes&amp;gt;&amp;gt;" style="edgeLabel;html=1;align=center;verticalAlign=middle;resizable=0;points=[];" vertex="1" connectable="0" parent="iVBU6AAsfBM6RFVNMPsU-37">
          <mxGeometry x="-0.7579" y="-1" relative="1" as="geometry">
            <mxPoint y="-1" as="offset" />
          </mxGeometry>
        </mxCell>
        <mxCell id="iVBU6AAsfBM6RFVNMPsU-38" value="&amp;lt;&amp;lt;include&amp;gt;&amp;gt;" style="endArrow=open;endSize=12;dashed=1;html=1;rounded=0;" edge="1" parent="1" source="iVBU6AAsfBM6RFVNMPsU-5" target="iVBU6AAsfBM6RFVNMPsU-17">
          <mxGeometry x="-0.2" y="10" relative="1" as="geometry">
            <mxPoint as="offset" />
          </mxGeometry>
        </mxCell>
        <mxCell id="iVBU6AAsfBM6RFVNMPsU-39" value="&amp;lt;&amp;lt;include&amp;gt;&amp;gt;" style="endArrow=open;endSize=12;dashed=1;html=1;rounded=0;" edge="1" parent="1" source="iVBU6AAsfBM6RFVNMPsU-10" target="iVBU6AAsfBM6RFVNMPsU-18">
          <mxGeometry x="-0.2" y="10" relative="1" as="geometry">
            <mxPoint as="offset" />
          </mxGeometry>
        </mxCell>
        <mxCell id="iVBU6AAsfBM6RFVNMPsU-40" value="&amp;lt;&amp;lt;include&amp;gt;&amp;gt;" style="endArrow=open;endSize=12;dashed=1;html=1;rounded=0;" edge="1" parent="1" source="iVBU6AAsfBM6RFVNMPsU-12" target="iVBU6AAsfBM6RFVNMPsU-18">
          <mxGeometry x="-0.2" y="10" relative="1" as="geometry">
            <mxPoint as="offset" />
          </mxGeometry>
        </mxCell>
        <mxCell id="iVBU6AAsfBM6RFVNMPsU-41" value="&amp;lt;&amp;lt;include&amp;gt;&amp;gt;" style="endArrow=open;endSize=12;dashed=1;html=1;rounded=0;" edge="1" parent="1" source="iVBU6AAsfBM6RFVNMPsU-16" target="iVBU6AAsfBM6RFVNMPsU-17">
          <mxGeometry x="-0.2" y="10" relative="1" as="geometry">
            <mxPoint as="offset" />
          </mxGeometry>
        </mxCell>
        <mxCell id="iVBU6AAsfBM6RFVNMPsU-42" value="&amp;lt;&amp;lt;include&amp;gt;&amp;gt;" style="endArrow=open;endSize=12;dashed=1;html=1;rounded=0;" edge="1" parent="1" source="iVBU6AAsfBM6RFVNMPsU-16" target="iVBU6AAsfBM6RFVNMPsU-20">
          <mxGeometry x="-0.2" y="10" relative="1" as="geometry">
            <mxPoint as="offset" />
          </mxGeometry>
        </mxCell>
        <mxCell id="iVBU6AAsfBM6RFVNMPsU-43" value="&amp;lt;&amp;lt;include&amp;gt;&amp;gt;" style="endArrow=open;endSize=12;dashed=1;html=1;rounded=0;" edge="1" parent="1" source="iVBU6AAsfBM6RFVNMPsU-4" target="iVBU6AAsfBM6RFVNMPsU-19">
          <mxGeometry x="-0.2" y="10" relative="1" as="geometry">
            <mxPoint as="offset" />
          </mxGeometry>
        </mxCell>
        <mxCell id="iVBU6AAsfBM6RFVNMPsU-44" value="&amp;lt;&amp;lt;include&amp;gt;&amp;gt;" style="endArrow=open;endSize=12;dashed=1;html=1;rounded=0;" edge="1" parent="1" source="iVBU6AAsfBM6RFVNMPsU-11" target="iVBU6AAsfBM6RFVNMPsU-21">
          <mxGeometry x="-0.2" y="10" relative="1" as="geometry">
            <mxPoint as="offset" />
          </mxGeometry>
        </mxCell>
        <mxCell id="iVBU6AAsfBM6RFVNMPsU-45" value="&amp;lt;&amp;lt;extend&amp;gt;&amp;gt;" style="endArrow=open;endSize=12;dashed=1;html=1;rounded=0;" edge="1" parent="1" source="iVBU6AAsfBM6RFVNMPsU-6" target="iVBU6AAsfBM6RFVNMPsU-9">
          <mxGeometry x="-0.2" y="10" relative="1" as="geometry">
            <mxPoint as="offset" />
          </mxGeometry>
        </mxCell>
        <mxCell id="iVBU6AAsfBM6RFVNMPsU-47" value="" style="endArrow=open;endSize=12;dashed=1;html=1;rounded=0;" edge="1" parent="1" source="iVBU6AAsfBM6RFVNMPsU-8" target="iVBU6AAsfBM6RFVNMPsU-16">
          <mxGeometry x="-0.2" y="10" relative="1" as="geometry">
            <mxPoint as="offset" />
            <mxPoint x="780" y="750" as="sourcePoint" />
            <mxPoint x="780" y="1590" as="targetPoint" />
          </mxGeometry>
        </mxCell>
        <mxCell id="iVBU6AAsfBM6RFVNMPsU-16" value="Manage User&lt;br&gt;Permissions" style="ellipse;whiteSpace=wrap;html=1;" vertex="1" parent="1">
          <mxGeometry x="1150" y="515" width="140" height="70" as="geometry" />
        </mxCell>
      </root>
    </mxGraphModel>
  </diagram>
</mxfile>
